<?xml version="1.0" encoding="UTF-8"?>
<svg xmlns="http://www.w3.org/2000/svg" viewBox="0 0 260 100" width="260" height="100">
  <defs>
    <clipPath id="tc">
      <polygon points="36,25 79,50 36,75"/>
    </clipPath>
  </defs>
  <circle cx="50" cy="50" r="40" fill="#F5F5F5"/>
  <g clip-path="url(#tc)">
    <rect x="36" y="25" width="10.75" height="50" fill="#4A7FB5"/>
    <rect x="46.75" y="25" width="10.75" height="50" fill="#2E9E8F"/>
    <rect x="57.5" y="25" width="10.75" height="50" fill="#D4913A"/>
    <rect x="68.25" y="25" width="10.75" height="50" fill="#C0392B"/>
  </g>
  <path d="M295 -12Q207 -12 145.5 20.0Q84 52 40 106L118 179Q155 134 199.5 111.0Q244 88 301 88Q368 88 402.0 118.0Q436 148 436 199Q436 240 412.0 264.0Q388 288 327 300L265 311Q163 330 112.0 378.0Q61 426 61 510Q61 556 78.5 593.5Q96 631 127.5 656.5Q159 682 204.0 696.0Q249 710 305 710Q384 710 442.0 682.5Q500 655 541 603L462 533Q435 568 396.0 589.0Q357 610 299 610Q239 610 206.0 586.0Q173 562 173 516Q173 472 200.0 450.5Q227 429 284 418L346 405Q451 385 499.5 337.0Q548 289 548 205Q548 156 531.0 116.0Q514 76 481.5 47.5Q449 19 402.0 3.5Q355 -12 295 -12Z" fill="#F5F5F5" transform="translate(110.000 52.000) scale(0.028000 -0.028000)"/>
  <path d="M247 0 18 698H135L246 353L313 110H317L385 353L496 698H610L378 0Z" fill="#F5F5F5" transform="translate(126.744 52.000) scale(0.028000 -0.028000)"/>
  <path d="M56 0V92H151V606H56V698H360V606H264V92H360V0Z" fill="#F5F5F5" transform="translate(144.328 52.000) scale(0.028000 -0.028000)"/>
  <path d="M69 261V347H330V261Z" fill="#F5F5F5" transform="translate(155.976 52.000) scale(0.028000 -0.028000)"/>
  <path d="M93 698H380Q467 698 516.5 649.0Q566 600 566 518Q566 479 555.0 452.0Q544 425 527.0 407.5Q510 390 490.0 381.5Q470 373 453 370V364Q472 363 495.5 354.0Q519 345 540.0 325.5Q561 306 575.5 275.5Q590 245 590 202Q590 159 576.5 122.0Q563 85 539.0 58.0Q515 31 482.0 15.5Q449 0 410 0H93ZM177 74H384Q438 74 469.0 101.5Q500 129 500 182V216Q500 269 469.0 296.5Q438 324 384 324H177ZM177 396H370Q420 396 448.0 421.0Q476 446 476 493V527Q476 574 448.0 599.0Q420 624 370 624H177Z" fill="#F5F5F5" transform="translate(167.148 52.000) scale(0.028000 -0.028000)"/>
  <path d="M279 -12Q226 -12 183.5 7.0Q141 26 110.5 61.5Q80 97 63.5 146.5Q47 196 47 258Q47 319 63.5 369.0Q80 419 110.5 454.5Q141 490 183.5 509.0Q226 528 279 528Q331 528 372.0 509.0Q413 490 442.0 456.5Q471 423 486.5 377.0Q502 331 502 276V238H131V214Q131 181 141.5 152.5Q152 124 171.5 103.0Q191 82 219.5 70.0Q248 58 284 58Q333 58 369.5 81.0Q406 104 426 147L483 106Q458 53 405.0 20.5Q352 -12 279 -12ZM279 461Q246 461 219.0 449.5Q192 438 172.5 417.0Q153 396 142.0 367.5Q131 339 131 305V298H416V309Q416 378 378.5 419.5Q341 461 279 461Z" fill="#F5F5F5" transform="translate(185.432 52.000) scale(0.028000 -0.028000)"/>
  <path d="M85 0V516H165V432H169Q188 476 222.5 502.0Q257 528 315 528Q395 528 441.5 476.5Q488 425 488 331V0H408V317Q408 456 291 456Q267 456 244.5 450.0Q222 444 204.0 432.0Q186 420 175.5 401.5Q165 383 165 358V0Z" fill="#F5F5F5" transform="translate(200.804 52.000) scale(0.028000 -0.028000)"/>
  <path d="M277 -12Q223 -12 180.0 7.0Q137 26 107.5 61.0Q78 96 62.5 146.0Q47 196 47 258Q47 320 62.5 370.0Q78 420 107.5 455.0Q137 490 180.0 509.0Q223 528 277 528Q354 528 400.5 494.5Q447 461 470 407L403 373Q389 413 357.0 435.0Q325 457 277 457Q241 457 214.0 445.5Q187 434 169.0 413.5Q151 393 142.0 364.5Q133 336 133 302V214Q133 146 169.5 102.5Q206 59 277 59Q374 59 417 149L475 110Q450 54 400.5 21.0Q351 -12 277 -12Z" fill="#F5F5F5" transform="translate(216.708 52.000) scale(0.028000 -0.028000)"/>
  <path d="M85 740H165V432H169Q188 476 222.5 502.0Q257 528 315 528Q395 528 441.5 476.5Q488 425 488 331V0H408V317Q408 456 291 456Q267 456 244.5 450.0Q222 444 204.0 432.0Q186 420 175.5 401.5Q165 383 165 358V0H85Z" fill="#F5F5F5" transform="translate(230.792 52.000) scale(0.028000 -0.028000)"/>
</svg>
