<?xml version="1.0" encoding="UTF-8"?>
<svg xmlns="http://www.w3.org/2000/svg" viewBox="0 0 380 100" width="380" height="100">
  <defs>
    <clipPath id="tc">
      <polygon points="36,25 79,50 36,75"/>
    </clipPath>
  </defs>
  <circle cx="50" cy="50" r="40" fill="#F5F5F5"/>
  <g clip-path="url(#tc)">
    <rect x="36" y="25" width="10.75" height="50" fill="#4A7FB5"/>
    <rect x="46.75" y="25" width="10.75" height="50" fill="#2E9E8F"/>
    <rect x="57.5" y="25" width="10.75" height="50" fill="#D4913A"/>
    <rect x="68.25" y="25" width="10.75" height="50" fill="#C0392B"/>
  </g>
  <g transform="translate(-30, -15) scale(1.3)">
  <path d="M295 -12Q207 -12 145.5 20.0Q84 52 40 106L118 179Q155 134 199.5 111.0Q244 88 301 88Q368 88 402.0 118.0Q436 148 436 199Q436 240 412.0 264.0Q388 288 327 300L265 311Q163 330 112.0 378.0Q61 426 61 510Q61 556 78.5 593.5Q96 631 127.5 656.5Q159 682 204.0 696.0Q249 710 305 710Q384 710 442.0 682.5Q500 655 541 603L462 533Q435 568 396.0 589.0Q357 610 299 610Q239 610 206.0 586.0Q173 562 173 516Q173 472 200.0 450.5Q227 429 284 418L346 405Q451 385 499.5 337.0Q548 289 548 205Q548 156 531.0 116.0Q514 76 481.5 47.5Q449 19 402.0 3.5Q355 -12 295 -12Z" fill="#F5F5F5" transform="translate(110.000 48.000) scale(0.028000 -0.028000)"/>
  <path d="M247 0 18 698H135L246 353L313 110H317L385 353L496 698H610L378 0Z" fill="#F5F5F5" transform="translate(126.744 48.000) scale(0.028000 -0.028000)"/>
  <path d="M56 0V92H151V606H56V698H360V606H264V92H360V0Z" fill="#F5F5F5" transform="translate(144.328 48.000) scale(0.028000 -0.028000)"/>
  <path d="M69 261V347H330V261Z" fill="#F5F5F5" transform="translate(155.976 48.000) scale(0.028000 -0.028000)"/>
  <path d="M93 698H380Q467 698 516.5 649.0Q566 600 566 518Q566 479 555.0 452.0Q544 425 527.0 407.5Q510 390 490.0 381.5Q470 373 453 370V364Q472 363 495.5 354.0Q519 345 540.0 325.5Q561 306 575.5 275.5Q590 245 590 202Q590 159 576.5 122.0Q563 85 539.0 58.0Q515 31 482.0 15.5Q449 0 410 0H93ZM177 74H384Q438 74 469.0 101.5Q500 129 500 182V216Q500 269 469.0 296.5Q438 324 384 324H177ZM177 396H370Q420 396 448.0 421.0Q476 446 476 493V527Q476 574 448.0 599.0Q420 624 370 624H177Z" fill="#F5F5F5" transform="translate(167.148 48.000) scale(0.028000 -0.028000)"/>
  <path d="M279 -12Q226 -12 183.5 7.0Q141 26 110.5 61.5Q80 97 63.5 146.5Q47 196 47 258Q47 319 63.5 369.0Q80 419 110.5 454.5Q141 490 183.5 509.0Q226 528 279 528Q331 528 372.0 509.0Q413 490 442.0 456.5Q471 423 486.5 377.0Q502 331 502 276V238H131V214Q131 181 141.5 152.5Q152 124 171.5 103.0Q191 82 219.5 70.0Q248 58 284 58Q333 58 369.5 81.0Q406 104 426 147L483 106Q458 53 405.0 20.5Q352 -12 279 -12ZM279 461Q246 461 219.0 449.5Q192 438 172.5 417.0Q153 396 142.0 367.5Q131 339 131 305V298H416V309Q416 378 378.5 419.5Q341 461 279 461Z" fill="#F5F5F5" transform="translate(185.432 48.000) scale(0.028000 -0.028000)"/>
  <path d="M85 0V516H165V432H169Q188 476 222.5 502.0Q257 528 315 528Q395 528 441.5 476.5Q488 425 488 331V0H408V317Q408 456 291 456Q267 456 244.5 450.0Q222 444 204.0 432.0Q186 420 175.5 401.5Q165 383 165 358V0Z" fill="#F5F5F5" transform="translate(200.804 48.000) scale(0.028000 -0.028000)"/>
  <path d="M277 -12Q223 -12 180.0 7.0Q137 26 107.5 61.0Q78 96 62.5 146.0Q47 196 47 258Q47 320 62.5 370.0Q78 420 107.5 455.0Q137 490 180.0 509.0Q223 528 277 528Q354 528 400.5 494.5Q447 461 470 407L403 373Q389 413 357.0 435.0Q325 457 277 457Q241 457 214.0 445.5Q187 434 169.0 413.5Q151 393 142.0 364.5Q133 336 133 302V214Q133 146 169.5 102.5Q206 59 277 59Q374 59 417 149L475 110Q450 54 400.5 21.0Q351 -12 277 -12Z" fill="#F5F5F5" transform="translate(216.708 48.000) scale(0.028000 -0.028000)"/>
  <path d="M85 740H165V432H169Q188 476 222.5 502.0Q257 528 315 528Q395 528 441.5 476.5Q488 425 488 331V0H408V317Q408 456 291 456Q267 456 244.5 450.0Q222 444 204.0 432.0Q186 420 175.5 401.5Q165 383 165 358V0H85Z" fill="#F5F5F5" transform="translate(230.792 48.000) scale(0.028000 -0.028000)"/>
  <path d="M289 -12Q204 -12 144.0 20.5Q84 53 42 110L104 162Q141 113 186.0 87.5Q231 62 292 62Q367 62 406.5 98.0Q446 134 446 194Q446 244 416.0 271.0Q386 298 317 314L260 327Q164 349 113.5 393.5Q63 438 63 519Q63 565 80.0 601.0Q97 637 127.5 661.0Q158 685 200.5 697.5Q243 710 294 710Q373 710 429.5 681.0Q486 652 525 596L462 550Q433 590 392.0 613.0Q351 636 290 636Q223 636 184.5 607.5Q146 579 146 522Q146 472 178.5 446.5Q211 421 277 406L334 393Q437 370 483.0 323.0Q529 276 529 198Q529 150 512.5 111.0Q496 72 465.0 45.0Q434 18 389.5 3.0Q345 -12 289 -12Z" fill="#94A3B8" transform="translate(110.000 68.000) scale(0.010000 -0.010000)"/>
  <path d="M199 0Q157 0 135.5 23.5Q114 47 114 85V446H29V516H77Q103 516 112.5 526.5Q122 537 122 563V659H194V516H307V446H194V70H299V0Z" fill="#94A3B8" transform="translate(115.810 68.000) scale(0.010000 -0.010000)"/>
  <path d="M85 0V516H165V421H170Q184 458 220.0 487.0Q256 516 319 516H350V436H303Q238 436 201.5 411.5Q165 387 165 350V0Z" fill="#94A3B8" transform="translate(119.320 68.000) scale(0.010000 -0.010000)"/>
  <path d="M460 0Q415 0 395.5 24.0Q376 48 371 84H366Q349 36 310.0 12.0Q271 -12 217 -12Q135 -12 89.5 30.0Q44 72 44 144Q44 217 97.5 256.0Q151 295 264 295H366V346Q366 401 336.0 430.0Q306 459 244 459Q197 459 165.5 438.0Q134 417 113 382L65 427Q86 469 132.0 498.5Q178 528 248 528Q342 528 394.0 482.0Q446 436 446 354V70H505V0ZM230 56Q260 56 285.0 63.0Q310 70 328.0 83.0Q346 96 356.0 113.0Q366 130 366 150V235H260Q191 235 159.5 215.0Q128 195 128 157V136Q128 98 155.5 77.0Q183 56 230 56Z" fill="#94A3B8" transform="translate(122.990 68.000) scale(0.010000 -0.010000)"/>
  <path d="M199 0Q157 0 135.5 23.5Q114 47 114 85V446H29V516H77Q103 516 112.5 526.5Q122 537 122 563V659H194V516H307V446H194V70H299V0Z" fill="#94A3B8" transform="translate(128.330 68.000) scale(0.010000 -0.010000)"/>
  <path d="M279 -12Q226 -12 183.5 7.0Q141 26 110.5 61.5Q80 97 63.5 146.5Q47 196 47 258Q47 319 63.5 369.0Q80 419 110.5 454.5Q141 490 183.5 509.0Q226 528 279 528Q331 528 372.0 509.0Q413 490 442.0 456.5Q471 423 486.5 377.0Q502 331 502 276V238H131V214Q131 181 141.5 152.5Q152 124 171.5 103.0Q191 82 219.5 70.0Q248 58 284 58Q333 58 369.5 81.0Q406 104 426 147L483 106Q458 53 405.0 20.5Q352 -12 279 -12ZM279 461Q246 461 219.0 449.5Q192 438 172.5 417.0Q153 396 142.0 367.5Q131 339 131 305V298H416V309Q416 378 378.5 419.5Q341 461 279 461Z" fill="#94A3B8" transform="translate(131.840 68.000) scale(0.010000 -0.010000)"/>
  <path d="M520 -57Q520 -137 457.5 -174.5Q395 -212 270 -212Q149 -212 96.0 -179.0Q43 -146 43 -85Q43 -43 65.0 -19.5Q87 4 125 15V26Q79 48 79 98Q79 137 104.0 157.5Q129 178 168 188V192Q122 214 96.5 255.0Q71 296 71 350Q71 389 85.0 422.0Q99 455 124.5 478.5Q150 502 185.5 515.0Q221 528 265 528Q320 528 363 508V517Q363 547 377.0 566.5Q391 586 423 586H500V516H402V483Q430 459 445.5 425.5Q461 392 461 350Q461 311 447.0 278.0Q433 245 407.5 221.5Q382 198 346.0 185.0Q310 172 266 172Q241 172 216 177Q190 170 169.0 156.5Q148 143 148 119Q148 96 170.0 88.0Q192 80 227 80H337Q433 80 476.5 43.5Q520 7 520 -57ZM445 -63Q445 -32 421.5 -13.5Q398 5 338 5H166Q118 -17 118 -65Q118 -99 143.5 -123.0Q169 -147 230 -147H304Q371 -147 408.0 -126.0Q445 -105 445 -63ZM266 236Q317 236 347.0 260.5Q377 285 377 336V364Q377 415 347.0 439.5Q317 464 266 464Q215 464 185.0 439.5Q155 415 155 364V336Q155 285 185.0 260.5Q215 236 266 236Z" fill="#94A3B8" transform="translate(137.330 68.000) scale(0.010000 -0.010000)"/>
  <path d="M125 637Q99 637 87.5 649.5Q76 662 76 682V695Q76 715 87.5 727.5Q99 740 125 740Q151 740 162.5 727.5Q174 715 174 695V682Q174 662 162.5 649.5Q151 637 125 637ZM85 516H165V0H85Z" fill="#94A3B8" transform="translate(142.610 68.000) scale(0.010000 -0.010000)"/>
  <path d="M277 -12Q223 -12 180.0 7.0Q137 26 107.5 61.0Q78 96 62.5 146.0Q47 196 47 258Q47 320 62.5 370.0Q78 420 107.5 455.0Q137 490 180.0 509.0Q223 528 277 528Q354 528 400.5 494.5Q447 461 470 407L403 373Q389 413 357.0 435.0Q325 457 277 457Q241 457 214.0 445.5Q187 434 169.0 413.5Q151 393 142.0 364.5Q133 336 133 302V214Q133 146 169.5 102.5Q206 59 277 59Q374 59 417 149L475 110Q450 54 400.5 21.0Q351 -12 277 -12Z" fill="#94A3B8" transform="translate(145.110 68.000) scale(0.010000 -0.010000)"/>
  <path d="M252 0 20 698H110L225 346L302 84H307L386 346L502 698H589L354 0Z" fill="#94A3B8" transform="translate(152.500 68.000) scale(0.010000 -0.010000)"/>
  <path d="M125 637Q99 637 87.5 649.5Q76 662 76 682V695Q76 715 87.5 727.5Q99 740 125 740Q151 740 162.5 727.5Q174 715 174 695V682Q174 662 162.5 649.5Q151 637 125 637ZM85 516H165V0H85Z" fill="#94A3B8" transform="translate(158.590 68.000) scale(0.010000 -0.010000)"/>
  <path d="M415 84H411Q364 -12 260 -12Q212 -12 173.0 7.0Q134 26 106.5 61.0Q79 96 64.5 146.0Q50 196 50 258Q50 320 64.5 370.0Q79 420 106.5 455.0Q134 490 173.0 509.0Q212 528 260 528Q314 528 352.5 504.5Q391 481 411 432H415V740H495V0H415ZM282 60Q309 60 333.5 67.0Q358 74 376.0 87.5Q394 101 404.5 120.5Q415 140 415 165V357Q415 378 404.5 396.5Q394 415 376.0 428.0Q358 441 333.5 448.5Q309 456 282 456Q214 456 175.0 413.5Q136 371 136 302V214Q136 145 175.0 102.5Q214 60 282 60Z" fill="#94A3B8" transform="translate(161.090 68.000) scale(0.010000 -0.010000)"/>
  <path d="M279 -12Q226 -12 183.5 7.0Q141 26 110.5 61.5Q80 97 63.5 146.5Q47 196 47 258Q47 319 63.5 369.0Q80 419 110.5 454.5Q141 490 183.5 509.0Q226 528 279 528Q331 528 372.0 509.0Q413 490 442.0 456.5Q471 423 486.5 377.0Q502 331 502 276V238H131V214Q131 181 141.5 152.5Q152 124 171.5 103.0Q191 82 219.5 70.0Q248 58 284 58Q333 58 369.5 81.0Q406 104 426 147L483 106Q458 53 405.0 20.5Q352 -12 279 -12ZM279 461Q246 461 219.0 449.5Q192 438 172.5 417.0Q153 396 142.0 367.5Q131 339 131 305V298H416V309Q416 378 378.5 419.5Q341 461 279 461Z" fill="#94A3B8" transform="translate(166.890 68.000) scale(0.010000 -0.010000)"/>
  <path d="M280 -12Q228 -12 185.0 7.0Q142 26 111.5 61.5Q81 97 64.0 146.5Q47 196 47 258Q47 319 64.0 369.0Q81 419 111.5 454.5Q142 490 185.0 509.0Q228 528 280 528Q332 528 374.5 509.0Q417 490 448.0 454.5Q479 419 496.0 369.0Q513 319 513 258Q513 196 496.0 146.5Q479 97 448.0 61.5Q417 26 374.5 7.0Q332 -12 280 -12ZM280 59Q345 59 386.0 99.0Q427 139 427 221V295Q427 377 386.0 417.0Q345 457 280 457Q215 457 174.0 417.0Q133 377 133 295V221Q133 139 174.0 99.0Q215 59 280 59Z" fill="#94A3B8" transform="translate(172.380 68.000) scale(0.010000 -0.010000)"/>
  <path d="M60 0V70H158V628H60V698H340V628H242V70H340V0Z" fill="#94A3B8" transform="translate(180.340 68.000) scale(0.010000 -0.010000)"/>
  <path d="M85 0V516H165V432H169Q188 476 222.5 502.0Q257 528 315 528Q395 528 441.5 476.5Q488 425 488 331V0H408V317Q408 456 291 456Q267 456 244.5 450.0Q222 444 204.0 432.0Q186 420 175.5 401.5Q165 383 165 358V0Z" fill="#94A3B8" transform="translate(184.340 68.000) scale(0.010000 -0.010000)"/>
  <path d="M199 0Q157 0 135.5 23.5Q114 47 114 85V446H29V516H77Q103 516 112.5 526.5Q122 537 122 563V659H194V516H307V446H194V70H299V0Z" fill="#94A3B8" transform="translate(190.020 68.000) scale(0.010000 -0.010000)"/>
  <path d="M279 -12Q226 -12 183.5 7.0Q141 26 110.5 61.5Q80 97 63.5 146.5Q47 196 47 258Q47 319 63.5 369.0Q80 419 110.5 454.5Q141 490 183.5 509.0Q226 528 279 528Q331 528 372.0 509.0Q413 490 442.0 456.5Q471 423 486.5 377.0Q502 331 502 276V238H131V214Q131 181 141.5 152.5Q152 124 171.5 103.0Q191 82 219.5 70.0Q248 58 284 58Q333 58 369.5 81.0Q406 104 426 147L483 106Q458 53 405.0 20.5Q352 -12 279 -12ZM279 461Q246 461 219.0 449.5Q192 438 172.5 417.0Q153 396 142.0 367.5Q131 339 131 305V298H416V309Q416 378 378.5 419.5Q341 461 279 461Z" fill="#94A3B8" transform="translate(193.530 68.000) scale(0.010000 -0.010000)"/>
  <path d="M170 0Q128 0 106.5 23.5Q85 47 85 83V740H165V70H241V0Z" fill="#94A3B8" transform="translate(199.020 68.000) scale(0.010000 -0.010000)"/>
  <path d="M170 0Q128 0 106.5 23.5Q85 47 85 83V740H165V70H241V0Z" fill="#94A3B8" transform="translate(201.740 68.000) scale(0.010000 -0.010000)"/>
  <path d="M125 637Q99 637 87.5 649.5Q76 662 76 682V695Q76 715 87.5 727.5Q99 740 125 740Q151 740 162.5 727.5Q174 715 174 695V682Q174 662 162.5 649.5Q151 637 125 637ZM85 516H165V0H85Z" fill="#94A3B8" transform="translate(204.460 68.000) scale(0.010000 -0.010000)"/>
  <path d="M520 -57Q520 -137 457.5 -174.5Q395 -212 270 -212Q149 -212 96.0 -179.0Q43 -146 43 -85Q43 -43 65.0 -19.5Q87 4 125 15V26Q79 48 79 98Q79 137 104.0 157.5Q129 178 168 188V192Q122 214 96.5 255.0Q71 296 71 350Q71 389 85.0 422.0Q99 455 124.5 478.5Q150 502 185.5 515.0Q221 528 265 528Q320 528 363 508V517Q363 547 377.0 566.5Q391 586 423 586H500V516H402V483Q430 459 445.5 425.5Q461 392 461 350Q461 311 447.0 278.0Q433 245 407.5 221.5Q382 198 346.0 185.0Q310 172 266 172Q241 172 216 177Q190 170 169.0 156.5Q148 143 148 119Q148 96 170.0 88.0Q192 80 227 80H337Q433 80 476.5 43.5Q520 7 520 -57ZM445 -63Q445 -32 421.5 -13.5Q398 5 338 5H166Q118 -17 118 -65Q118 -99 143.5 -123.0Q169 -147 230 -147H304Q371 -147 408.0 -126.0Q445 -105 445 -63ZM266 236Q317 236 347.0 260.5Q377 285 377 336V364Q377 415 347.0 439.5Q317 464 266 464Q215 464 185.0 439.5Q155 415 155 364V336Q155 285 185.0 260.5Q215 236 266 236Z" fill="#94A3B8" transform="translate(206.960 68.000) scale(0.010000 -0.010000)"/>
  <path d="M279 -12Q226 -12 183.5 7.0Q141 26 110.5 61.5Q80 97 63.5 146.5Q47 196 47 258Q47 319 63.5 369.0Q80 419 110.5 454.5Q141 490 183.5 509.0Q226 528 279 528Q331 528 372.0 509.0Q413 490 442.0 456.5Q471 423 486.5 377.0Q502 331 502 276V238H131V214Q131 181 141.5 152.5Q152 124 171.5 103.0Q191 82 219.5 70.0Q248 58 284 58Q333 58 369.5 81.0Q406 104 426 147L483 106Q458 53 405.0 20.5Q352 -12 279 -12ZM279 461Q246 461 219.0 449.5Q192 438 172.5 417.0Q153 396 142.0 367.5Q131 339 131 305V298H416V309Q416 378 378.5 419.5Q341 461 279 461Z" fill="#94A3B8" transform="translate(212.240 68.000) scale(0.010000 -0.010000)"/>
  <path d="M85 0V516H165V432H169Q188 476 222.5 502.0Q257 528 315 528Q395 528 441.5 476.5Q488 425 488 331V0H408V317Q408 456 291 456Q267 456 244.5 450.0Q222 444 204.0 432.0Q186 420 175.5 401.5Q165 383 165 358V0Z" fill="#94A3B8" transform="translate(217.730 68.000) scale(0.010000 -0.010000)"/>
  <path d="M277 -12Q223 -12 180.0 7.0Q137 26 107.5 61.0Q78 96 62.5 146.0Q47 196 47 258Q47 320 62.5 370.0Q78 420 107.5 455.0Q137 490 180.0 509.0Q223 528 277 528Q354 528 400.5 494.5Q447 461 470 407L403 373Q389 413 357.0 435.0Q325 457 277 457Q241 457 214.0 445.5Q187 434 169.0 413.5Q151 393 142.0 364.5Q133 336 133 302V214Q133 146 169.5 102.5Q206 59 277 59Q374 59 417 149L475 110Q450 54 400.5 21.0Q351 -12 277 -12Z" fill="#94A3B8" transform="translate(223.410 68.000) scale(0.010000 -0.010000)"/>
  <path d="M279 -12Q226 -12 183.5 7.0Q141 26 110.5 61.5Q80 97 63.5 146.5Q47 196 47 258Q47 319 63.5 369.0Q80 419 110.5 454.5Q141 490 183.5 509.0Q226 528 279 528Q331 528 372.0 509.0Q413 490 442.0 456.5Q471 423 486.5 377.0Q502 331 502 276V238H131V214Q131 181 141.5 152.5Q152 124 171.5 103.0Q191 82 219.5 70.0Q248 58 284 58Q333 58 369.5 81.0Q406 104 426 147L483 106Q458 53 405.0 20.5Q352 -12 279 -12ZM279 461Q246 461 219.0 449.5Q192 438 172.5 417.0Q153 396 142.0 367.5Q131 339 131 305V298H416V309Q416 378 378.5 419.5Q341 461 279 461Z" fill="#94A3B8" transform="translate(228.440 68.000) scale(0.010000 -0.010000)"/>
  <path d="M93 698H380Q467 698 516.5 649.0Q566 600 566 518Q566 479 555.0 452.0Q544 425 527.0 407.5Q510 390 490.0 381.5Q470 373 453 370V364Q472 363 495.5 354.0Q519 345 540.0 325.5Q561 306 575.5 275.5Q590 245 590 202Q590 159 576.5 122.0Q563 85 539.0 58.0Q515 31 482.0 15.5Q449 0 410 0H93ZM177 74H384Q438 74 469.0 101.5Q500 129 500 182V216Q500 269 469.0 296.5Q438 324 384 324H177ZM177 396H370Q420 396 448.0 421.0Q476 446 476 493V527Q476 574 448.0 599.0Q420 624 370 624H177Z" fill="#94A3B8" transform="translate(236.290 68.000) scale(0.010000 -0.010000)"/>
  <path d="M279 -12Q226 -12 183.5 7.0Q141 26 110.5 61.5Q80 97 63.5 146.5Q47 196 47 258Q47 319 63.5 369.0Q80 419 110.5 454.5Q141 490 183.5 509.0Q226 528 279 528Q331 528 372.0 509.0Q413 490 442.0 456.5Q471 423 486.5 377.0Q502 331 502 276V238H131V214Q131 181 141.5 152.5Q152 124 171.5 103.0Q191 82 219.5 70.0Q248 58 284 58Q333 58 369.5 81.0Q406 104 426 147L483 106Q458 53 405.0 20.5Q352 -12 279 -12ZM279 461Q246 461 219.0 449.5Q192 438 172.5 417.0Q153 396 142.0 367.5Q131 339 131 305V298H416V309Q416 378 378.5 419.5Q341 461 279 461Z" fill="#94A3B8" transform="translate(242.820 68.000) scale(0.010000 -0.010000)"/>
  <path d="M85 0V516H165V432H169Q188 476 222.5 502.0Q257 528 315 528Q395 528 441.5 476.5Q488 425 488 331V0H408V317Q408 456 291 456Q267 456 244.5 450.0Q222 444 204.0 432.0Q186 420 175.5 401.5Q165 383 165 358V0Z" fill="#94A3B8" transform="translate(248.310 68.000) scale(0.010000 -0.010000)"/>
  <path d="M277 -12Q223 -12 180.0 7.0Q137 26 107.5 61.0Q78 96 62.5 146.0Q47 196 47 258Q47 320 62.5 370.0Q78 420 107.5 455.0Q137 490 180.0 509.0Q223 528 277 528Q354 528 400.5 494.5Q447 461 470 407L403 373Q389 413 357.0 435.0Q325 457 277 457Q241 457 214.0 445.5Q187 434 169.0 413.5Q151 393 142.0 364.5Q133 336 133 302V214Q133 146 169.5 102.5Q206 59 277 59Q374 59 417 149L475 110Q450 54 400.5 21.0Q351 -12 277 -12Z" fill="#94A3B8" transform="translate(253.990 68.000) scale(0.010000 -0.010000)"/>
  <path d="M85 740H165V432H169Q188 476 222.5 502.0Q257 528 315 528Q395 528 441.5 476.5Q488 425 488 331V0H408V317Q408 456 291 456Q267 456 244.5 450.0Q222 444 204.0 432.0Q186 420 175.5 401.5Q165 383 165 358V0H85Z" fill="#94A3B8" transform="translate(259.020 68.000) scale(0.010000 -0.010000)"/>
  <path d="M85 0V516H165V432H169Q178 452 189.5 469.5Q201 487 217.5 500.0Q234 513 256.0 520.5Q278 528 308 528Q359 528 402.0 503.5Q445 479 466 423H468Q482 465 520.5 496.5Q559 528 625 528Q704 528 748.5 476.5Q793 425 793 331V0H713V317Q713 386 686.0 421.0Q659 456 600 456Q576 456 554.5 450.0Q533 444 516.0 432.0Q499 420 489.0 401.5Q479 383 479 358V0H399V317Q399 386 372.0 421.0Q345 456 288 456Q264 456 242.0 450.0Q220 444 203.0 432.0Q186 420 175.5 401.5Q165 383 165 358V0Z" fill="#94A3B8" transform="translate(264.700 68.000) scale(0.010000 -0.010000)"/>
  <path d="M460 0Q415 0 395.5 24.0Q376 48 371 84H366Q349 36 310.0 12.0Q271 -12 217 -12Q135 -12 89.5 30.0Q44 72 44 144Q44 217 97.5 256.0Q151 295 264 295H366V346Q366 401 336.0 430.0Q306 459 244 459Q197 459 165.5 438.0Q134 417 113 382L65 427Q86 469 132.0 498.5Q178 528 248 528Q342 528 394.0 482.0Q446 436 446 354V70H505V0ZM230 56Q260 56 285.0 63.0Q310 70 328.0 83.0Q346 96 356.0 113.0Q366 130 366 150V235H260Q191 235 159.5 215.0Q128 195 128 157V136Q128 98 155.5 77.0Q183 56 230 56Z" fill="#94A3B8" transform="translate(273.430 68.000) scale(0.010000 -0.010000)"/>
  <path d="M85 0V516H165V421H170Q184 458 220.0 487.0Q256 516 319 516H350V436H303Q238 436 201.5 411.5Q165 387 165 350V0Z" fill="#94A3B8" transform="translate(278.770 68.000) scale(0.010000 -0.010000)"/>
  <path d="M85 740H165V271H169L248 359L394 516H491L300 312L510 0H413L242 263L165 184V0H85Z" fill="#94A3B8" transform="translate(282.440 68.000) scale(0.010000 -0.010000)"/>
  </g>
</svg>
